Coordinates
version=1
nRows=65
nColumns=12
inDegrees=yes

Units are S.I. units (second, meters, Newtons, ...)
Angles are in degrees

endheader
time	SC_y	SC_z	SC_x	AC_y	AC_z	AC_x	GH_y	GH_z	GH_yy	EL_x	PS_y
       0.0              -19.24         -4.733          6.448          54.24         -4.169          3.512          121.8          1.156         -88.64          93.95          87.48
   0.04766              -19.25          -4.73          6.458          54.24         -4.167          3.514          121.8          1.158         -88.64          93.95          87.49
   0.09532              -19.25         -4.727          6.469          54.24         -4.164          3.516          121.7          1.159         -88.63          93.95           87.5
     0.143              -19.26         -4.723           6.48          54.24         -4.162          3.519          121.7          1.161         -88.63          93.95          87.51
    0.1906              -19.26         -4.719          6.492          54.24          -4.16          3.521          121.7          1.163         -88.63          93.95          87.52
    0.2383              -19.26         -4.715          6.505          54.24         -4.157          3.524          121.7          1.165         -88.63          93.96          87.53
     0.286              -19.27         -4.711          6.519          54.24         -4.155          3.527          121.6          1.168         -88.63          93.96          87.54
    0.3336              -19.27         -4.706          6.534          54.24         -4.152           3.53          121.6           1.17         -88.63          93.96          87.55
    0.3813              -19.28         -4.701          6.549          54.25         -4.149          3.534          121.6          1.172         -88.63          93.96          87.56
    0.4289              -19.29         -4.695          6.566          54.25         -4.145          3.537          121.5          1.175         -88.63          93.96          87.57
    0.4766              -19.29          -4.69          6.585          54.25         -4.142          3.541          121.5          1.178         -88.62          93.96          87.59
    0.5243               -19.3         -4.683          6.604          54.25         -4.138          3.545          121.4          1.181         -88.62          93.97           87.6
    0.5719              -19.31         -4.677          6.625          54.25         -4.134           3.55          121.4          1.185         -88.62          93.97          87.62
    0.6196              -19.31         -4.669          6.648          54.25         -4.129          3.554          121.4          1.189         -88.62          93.97          87.64
    0.6672              -19.32         -4.661          6.673          54.25         -4.124           3.56          121.3          1.193         -88.62          93.97          87.66
    0.7149              -19.33         -4.653            6.7          54.25         -4.119          3.565          121.2          1.197         -88.61          93.98          87.68
    0.7626              -19.34         -4.644          6.729          54.25         -4.113          3.571          121.2          1.202         -88.61          93.98           87.7
    0.8102              -19.35         -4.633          6.761          54.26         -4.107          3.578          121.1          1.207         -88.61          93.98          87.73
    0.8579              -19.36         -4.622          6.795          54.26         -4.101          3.585          121.1          1.212          -88.6          93.99          87.76
    0.9055              -19.38          -4.61          6.833          54.26         -4.093          3.593          121.0          1.219          -88.6          93.99          87.79
    0.9532              -19.39         -4.597          6.875          54.26         -4.085          3.602          120.9          1.225          -88.6           94.0          87.82
     1.001              -19.41         -4.582          6.921          54.26         -4.076          3.612          120.8          1.233         -88.59           94.0          87.86
     1.049              -19.43         -4.566          6.971          54.27         -4.066          3.622          120.7          1.241         -88.59          94.01           87.9
     1.096              -19.44         -4.548          7.027          54.27         -4.055          3.634          120.6           1.25         -88.58          94.01          87.94
     1.144              -19.47         -4.528           7.09          54.27         -4.043          3.647          120.4           1.26         -88.58          94.02          87.99
     1.191              -19.49         -4.506          7.159          54.28         -4.029          3.662          120.3          1.271         -88.57          94.03          88.05
     1.239              -19.52         -4.481          7.237          54.28         -4.014          3.679          120.1          1.284         -88.56          94.04          88.11
     1.287              -19.55         -4.453          7.325          54.29         -3.997          3.697          120.0          1.298         -88.55          94.05          88.18
     1.334              -19.58         -4.421          7.424          54.29         -3.977          3.718          119.7          1.314         -88.54          94.06          88.26
     1.382              -19.62         -4.385          7.537           54.3         -3.955          3.742          119.5          1.333         -88.53          94.07          88.35
      1.43              -19.67         -4.344          7.665           54.3          -3.93          3.769          119.2          1.354         -88.52          94.08          88.45
     1.477              -19.72         -4.297          7.812          54.31         -3.901            3.8          118.9          1.378         -88.51           94.1          88.57
     1.525              -19.78         -4.243          7.983          54.32         -3.868          3.836          118.6          1.405         -88.49          94.12           88.7
     1.573              -19.84          -4.18           8.18          54.33         -3.829          3.877          118.2          1.437         -88.47          94.14          88.86
      1.62              -19.92         -4.106          8.412          54.34         -3.784          3.926          117.7          1.475         -88.45          94.17          89.04
     1.668              -20.02         -4.018          8.684          54.36         -3.731          3.984          117.1          1.519         -88.43           94.2          89.26
     1.716              -20.13         -3.915          9.008          54.38         -3.667          4.052          116.5          1.572         -88.39          94.23          89.52
     1.763              -20.26         -3.791          9.397           54.4         -3.591          4.134          115.7          1.635         -88.36          94.27          89.83
     1.811              -20.43          -3.64          9.867          54.42         -3.499          4.233          114.7          1.711         -88.31          94.33           90.2
     1.859              -20.63         -3.457          10.44          54.45         -3.387          4.354          113.5          1.804         -88.26          94.39          90.66
     1.906              -20.87          -3.23          11.15          54.49         -3.248          4.504          112.0          1.919         -88.19          94.47          91.23
     1.954              -21.18         -2.948          12.03          54.54         -3.075           4.69          110.2          2.063         -88.11          94.56          91.93
     2.002              -21.56         -2.592          13.15           54.6         -2.857          4.925          107.9          2.243          -88.0          94.69          92.82
     2.049              -22.05          -2.14          14.56          54.67          -2.58          5.223          105.0          2.473         -87.87          94.84          93.95
     2.097              -22.68         -1.561          16.37          54.77         -2.226          5.605          101.2          2.767          -87.7          95.04          95.39
     2.145              -23.48        -0.8175           18.7          54.89         -1.771          6.095           96.4          3.145         -87.48          95.29          97.24
     2.192              -24.51         0.1316          21.66          55.05          -1.19          6.721          90.25          3.627          -87.2          95.62          99.61
      2.24               -25.8          1.325           25.4          55.25         -0.459          7.508          82.51          4.233         -86.85          96.03          102.6
     2.288              -27.37          2.779          29.95          55.49         0.4314          8.467          73.09          4.971         -86.42          96.53          106.2
     2.335              -29.19          4.465          35.22          55.77          1.464          9.579          62.17          5.827         -85.92          97.11          110.4
     2.383              -31.17           6.29          40.93          56.07          2.581          10.78          50.34          6.754         -85.38          97.74          115.0
     2.431              -33.14          8.116          46.64          56.38          3.699          11.99          38.51          7.681         -84.84          98.36          119.5
     2.478              -34.97          9.801          51.91          56.66          4.731           13.1          27.59          8.537         -84.34          98.94          123.7
     2.526              -36.54          11.26          56.46           56.9          5.621          14.06          18.16          9.276         -83.91          99.44          127.3
     2.574              -37.83          12.45          60.19           57.1          6.352          14.84          10.43          9.882         -83.56          99.85          130.3
     2.621              -38.86           13.4          63.16          57.25          6.933          15.47          4.278          10.36         -83.27          100.2          132.7
     2.669              -39.66          14.14          65.48          57.38          7.388          15.96        -0.5369          10.74         -83.06          100.4          134.5
     2.717              -40.29          14.72           67.3          57.47          7.743          16.34         -4.289          11.03         -82.88          100.6          136.0
     2.764              -40.77          15.17          68.71          57.55           8.02          16.64          -7.22          11.26         -82.75          100.8          137.1
     2.812              -41.16          15.53          69.82          57.61          8.238          16.88         -9.526          11.45         -82.64          100.9          138.0
      2.86              -41.46          15.81          70.71          57.65          8.411          17.06         -11.36          11.59         -82.56          101.0          138.7
     2.907              -41.71          16.04          71.42          57.69          8.549          17.21         -12.82           11.7         -82.49          101.1          139.3
     2.955              -41.91          16.22          71.99          57.72          8.662          17.33         -14.01           11.8         -82.44          101.1          139.7
     3.003              -42.07          16.37          72.46          57.75          8.754          17.43         -14.99          11.87          -82.4          101.2          140.1
      3.05              -42.21           16.5          72.85          57.77           8.83          17.51         -15.79          11.94         -82.36          101.2          140.4
